# xmcd
#
# Track frame offsets:
#	150
#	19414
#	38143
#	59889
#	79325
#	101110
#	126675
#	148334
#	181358
#	208862
#	235471
#	258816
#	281204
#
# Disc length: 4109 seconds
#
# Revision: 4294901763
# Processed by: cddbd v1.5.2PL0 Copyright (c) Steve Scherf et al.
# Submitted via: EZCDAudioConverter 8.0.2.1
#
DISCID=da100b0d
DTITLE=Đàm Vĩnh Hưng - Bình Minh Sẽ Mang Em Đi
DYEAR=2001
DGENRE=
TTITLE0=Đàm Vĩnh Hưng - Nuối tiếc
TTITLE1=Đàm Vĩnh Hưng - Cô đơn mình anh
TTITLE2=Đàm Vĩnh Hưng - Bình Minh Sẽ Mang Em Đi
TTITLE3=Đàm Vĩnh Hưng - Lạc mất mùa xuân
TTITLE4=Đàm Vĩnh Hưng - Tình yêu không lời
TTITLE5=Đàm Vĩnh Hưng - Xin dìu nhau đến tình yêu
TTITLE6=Đàm Vĩnh Hưng - Có lẽ nào
TTITLE7=Đàm Vĩnh Hưng - Huyền thoại nàng Tô Thị
TTITLE8=Đàm Vĩnh Hưng - Rồi anh sẽ quên
TTITLE9=Đàm Vĩnh Hưng - Ngày em đi
TTITLE10=Đàm Vĩnh Hưng - Góc phố rêu xanh
TTITLE11=Đàm Vĩnh Hưng - Góc phố rêu xanh (remix)
TTITLE12=Soundtrack - Tình ơi xin ngủ yên
EXTD=
EXTT0=
EXTT1=
EXTT2=
EXTT3=
EXTT4=
EXTT5=
EXTT6=
EXTT7=
EXTT8=
EXTT9=
EXTT10=
EXTT11=
EXTT12=
PLAYORDER=
